<?xml version="1.0" encoding="UTF-8"?>
<svg id="Layer_1" data-name="Layer 1" xmlns="http://www.w3.org/2000/svg" viewBox="0 0 1057.98 1021.65">
  <defs>
    <style>
      .cls-1 {
        fill: #2c4557;
      }

      .cls-1, .cls-2, .cls-3, .cls-4, .cls-5, .cls-6, .cls-7 {
        stroke-width: 0px;
      }

      .cls-2 {
        fill: #2e495c;
      }

      .cls-3 {
        fill: #223748;
      }

      .cls-4 {
        fill: #243a49;
      }

      .cls-5 {
        fill: #243a4b;
      }

      .cls-6 {
        fill: #1cb08c;
      }

      .cls-7 {
        fill: #15977d;
      }
    </style>
  </defs>
  <circle class="cls-5" cx="305.19" cy="143.5" r="143.5"/>
  <circle class="cls-7" cx="760.19" cy="143.5" r="143.5"/>
  <path class="cls-2" d="m185.69,65c5.58-7.34,48.34-61.88,115-63,36.28-.61,66.04,14.83,76,20,17.85,9.26,27.58,14.31,33,25,15.16,29.9-14.33,82.43-54,107-33.58,20.8-88.92,30.53-130-2-39.01-30.89-39.97-79.94-40-87Z"/>
  <path class="cls-6" d="m641.4,63.21C645.01,54.46,687.85-.02,756.4.21c36.29.12,59.32,10.62,69.28,15.79,17.85,9.26,35,22,40,32,14.99,29.99-14.61,79.64-54.28,104.21-33.58,20.8-88.92,30.53-130-2-39.01-30.89-39.97-79.94-40-87Z"/>
  <path class="cls-1" d="m624.69,731l74-57-23.56-25.13c-4.29-4.57-8.97-8.76-14-12.5l-74.65-55.56c-2.52-1.88-5.15-3.61-7.86-5.2l-60.93-35.62-98.6-51S117.26,314,112.69,211l17,95,35,87,47,114,232,165,150,69,31-10Z"/>
  <path class="cls-4" d="m112.69,211c-9.27,64.6-17.62,198.31,62,311,43.38,61.4,98.02,95.53,166,138,93.12,58.17,178.42,89.61,236,107l48-36c-3.6-2.74-9.17-6.95-16-12-151.5-112.04-252.83-142.09-318-185-59.97-39.49-132.38-118.21-172-293l-6-30Z"/>
  <path class="cls-1" d="m282.69,790l91-53.98c-3.34-1.98-6.67-3.98-10-6-21.14-12.82-165.81-101.38-225-174-85.69-105.14-64.32-265.38-52-330l20-65-31.71,60.95-54.29,158.05,60,278,177.51,130.98,24.49,1Z"/>
  <path class="cls-3" d="m106.69,161C76.48,201.79,8.28,305.55.69,454c-10.1,197.53,94.26,334.72,122,369,0,0,68,10,160-33-4.05-2.75-9.97-6.86-17-12-16.32-11.94-141.13-104.97-193-227C-.83,378.06,91.15,191.51,104.69,165l2-4Z"/>
  <path class="cls-3" d="m171.69,876c41.71-6.68,96.82-20.01,157-48,44.38-20.64,80.31-44.04,108-65l94,46c-1.33,1.34-2.66,2.67-4,4-57.49,56.99-132.65,110.02-232,150-2-.98-4-1.98-6-3-37.88-19.27-77.34-45.64-116-82l-1-2Z"/>
  <path class="cls-7" d="m578.69,508c49.78-10.18,225-91,264-125,64.16-55.93,90-113,107-174,.34.66.85,1.27,1,2,18,89-2.32,189.05-19,228-8.68,20.28-20.92,48.37-45,81-49.61,67.22-108.8,100.25-143,116-5.22-5.02-10.56-10.02-16-15-45.7-41.83-92.72-76.37-139-105l-10-8Z"/>
  <path class="cls-6" d="m578.69,508c30.33,21.33,60.67,42.67,91,64,1.41-.7,3.49-1.73,6-3,51.47-25.96,149.56-75.43,204-139,18.43-21.52,70.6-89.9,70-221-.64,2.35-1.3,4.68-2,7-24.19,80.65-101.42,202.08-369,292h0Z"/>
  <path class="cls-6" d="m422.69,1013l8-14,26-34,43-45,26-25,58-51,58-48,85-67,54-42c15.39-11.5,35.86-28.04,58-50,25.47-25.27,70.43-70.68,104-144,31.99-69.85,37.36-129.48,40-162,3.63-44.72,7.48-100.6-21-159-.82-1.68-1.52-3.06-2-4l6,10,11,20,8,16,4,9,27,56,7,133-29.39,224-96.61,123-219,180-83,32-90,24-10.31,18h-71.69Z"/>
  <path class="cls-7" d="m956.69,163c31.93,45.38,94.73,148.48,101,292,1.07,24.52,6.99,240.83-159,408-39.51,39.79-117.66,105.9-236,139-104.34,29.18-192.89,19.55-240,11,.41-.2,3.59-1.8,4-2,267.85-133.89,273.2-129.45,314-157,20.59-13.9,112.37-77.91,181-197,12.09-20.98,49.18-88.29,69-184,12.19-58.86,27.16-135.59,1-226-9.89-34.18-22.97-61-33-79l-2-5Z"/>
</svg>